<?xml version="1.0" encoding="UTF-8" standalone="no"?>
<svg
   width="780"
   height="70"
   viewBox="0 0 780 70"
   version="1.1"
   id="svg2"
   sodipodi:docname="tagline-1.svg"
   inkscape:version="1.4.2 (f4327f4, 2025-05-13)"
   xmlns:inkscape="http://www.inkscape.org/namespaces/inkscape"
   xmlns:sodipodi="http://sodipodi.sourceforge.net/DTD/sodipodi-0.dtd"
   xmlns="http://www.w3.org/2000/svg"
   xmlns:svg="http://www.w3.org/2000/svg">
  <sodipodi:namedview
     id="namedview1"
     pagecolor="#ffffff"
     bordercolor="#000000"
     borderopacity="0.25"
     inkscape:showpageshadow="2"
     inkscape:pageopacity="0.0"
     inkscape:pagecheckerboard="0"
     inkscape:deskcolor="#d1d1d1"
     inkscape:zoom="1.4460334"
     inkscape:cx="411.12467"
     inkscape:cy="68.808922"
     inkscape:window-width="2560"
     inkscape:window-height="1494"
     inkscape:window-x="2869"
     inkscape:window-y="-11"
     inkscape:window-maximized="1"
     inkscape:current-layer="svg2" />
  <defs
     id="defs2">
    <linearGradient
       id="gradient"
       gradientTransform="matrix(7.175832,0,0,0.494559,144.87929,-36.344035)"
       x1="-19.732931"
       y1="77.373184"
       x2="98.770798"
       y2="77.373184"
       gradientUnits="userSpaceOnUse">
      <stop
         offset="0%"
         stop-color="#ff6ec4"
         id="stop1">
        <animate
           attributeName="stop-color"
           values="#ff6ec4;#7873f5;#4ade80;#facc15;#f97316;#ff6ec4"
           dur="8s"
           repeatCount="indefinite" />
      </stop>
      <stop
         offset="100%"
         stop-color="#7873f5"
         id="stop2">
        <animate
           attributeName="stop-color"
           values="#7873f5;#4ade80;#facc15;#f97316;#ff6ec4;#7873f5"
           dur="8s"
           repeatCount="indefinite" />
      </stop>
    </linearGradient>
  </defs>
  <path
     d="M 44.002154,12.661953 H 21.401732 v 14.487451 h 18.891635 q 2.627058,0 3.901953,1.197629 1.313529,1.158996 1.313529,3.129289 0,1.970294 -1.313529,3.12929 -1.313528,1.158996 -3.901953,1.158996 H 21.401732 v 18.659836 q 0,3.554254 -1.622595,5.292749 -1.583961,1.69986 -4.095119,1.69986 -2.549791,0 -4.172386,-1.738494 Q 9.9276709,57.940065 9.9276709,54.424444 V 10.846193 q 0,-2.4725249 0.7340311,-4.017853 0.734031,-1.5839612 2.279359,-2.2793589 1.583961,-0.7340308 4.017853,-0.7340308 h 27.04324 q 2.742958,0 4.056487,1.2362625 1.352162,1.1976292 1.352162,3.1679225 0,2.0089267 -1.352162,3.2451887 -1.313529,1.197629 -4.056487,1.197629 z m 20.668762,33.533619 v 8.80837 q 0,3.206556 -1.506695,4.82915 -1.506695,1.583961 -3.824687,1.583961 -2.279359,0 -3.747421,-1.622594 -1.468061,-1.622595 -1.468061,-4.790517 V 25.642709 q 0,-7.108509 5.138216,-7.108509 2.627057,0 3.786053,1.661228 1.158996,1.661227 1.274896,4.906416 1.893027,-3.245189 3.86332,-4.906416 2.008927,-1.661228 5.331382,-1.661228 3.322455,0 6.451744,1.661228 3.12929,1.661227 3.12929,4.404185 0,1.93166 -1.352162,3.206555 -1.313529,1.236263 -2.858857,1.236263 -0.579498,0 -2.820224,-0.695398 -2.202092,-0.734031 -3.901953,-0.734031 -2.317992,0 -3.786054,1.236263 -1.468062,1.197629 -2.279359,3.592887 -0.811297,2.395259 -1.120363,5.717714 -0.309065,3.283822 -0.309065,8.035706 z m 60.654124,-6.219945 q 0,4.71325 -1.46806,8.69247 -1.46807,3.97922 -4.24966,6.838077 -2.78159,2.858857 -6.64491,4.404185 -3.86332,1.506694 -8.69247,1.506694 -4.790515,0 -8.615202,-1.545328 -3.824687,-1.545328 -6.64491,-4.404185 -2.781591,-2.89749 -4.249653,-6.799443 -1.429428,-3.940587 -1.429428,-8.69247 0,-4.790517 1.468062,-8.769737 1.468061,-3.97922 4.211019,-6.799443 2.742957,-2.820224 6.64491,-4.326919 3.901954,-1.545328 8.615202,-1.545328 4.79052,0 8.69247,1.545328 3.90196,1.545328 6.68355,4.404185 2.78159,2.858857 4.21102,6.799443 1.46806,3.940587 1.46806,8.692471 z m -10.5855,0 q 0,-6.451745 -2.85886,-10.044633 -2.82022,-3.592887 -7.61074,-3.592887 -3.09065,0 -5.447279,1.622594 -2.356626,1.583961 -3.631521,4.713251 -1.274896,3.129289 -1.274896,7.301675 0,4.133752 1.236263,7.224408 1.274895,3.090656 3.592887,4.751884 2.356626,1.622595 5.524546,1.622595 4.79052,0 7.61074,-3.592888 2.85886,-3.631521 2.85886,-10.005999 z m 53.97059,0.772664 v 14.023852 q 0,3.322455 -1.5067,4.983683 -1.50669,1.661227 -3.97922,1.661227 -2.39526,0 -3.90195,-1.661227 -1.46806,-1.661228 -1.46806,-4.983683 V 37.9667 q 0,-3.979219 -0.27043,-6.181312 -0.27044,-2.202092 -1.46807,-3.592888 -1.19762,-1.429428 -3.78605,-1.429428 -5.17685,0 -6.83808,3.554254 -1.62259,3.554255 -1.62259,10.199166 v 14.255651 q 0,3.283822 -1.5067,4.983683 -1.46806,1.661227 -3.90195,1.661227 -2.39526,0 -3.94059,-1.661227 -1.50669,-1.699861 -1.50669,-4.983683 v -30.17253 q 0,-2.974757 1.35216,-4.520085 1.3908,-1.545328 3.63152,-1.545328 2.16346,0 3.59289,1.468062 1.46806,1.429428 1.46806,3.979219 v 1.004464 q 2.74296,-3.283823 5.87225,-4.829151 3.12929,-1.545328 6.95398,-1.545328 3.97921,0 6.83807,1.583962 2.85886,1.583961 4.71325,4.790517 2.66569,-3.245189 5.71772,-4.790517 3.05202,-1.583962 6.76081,-1.583962 4.32691,0 7.4562,1.699861 3.12929,1.699861 4.67462,4.867784 1.35216,2.858857 1.35216,9.001536 v 20.591496 q 0,3.322455 -1.50669,4.983683 -1.5067,1.661227 -3.97922,1.661227 -2.39526,0 -3.94059,-1.661227 -1.50669,-1.699861 -1.50669,-4.983683 v -17.73264 q 0,-3.399721 -0.30907,-5.447281 -0.27043,-2.04756 -1.54533,-3.438355 -1.27489,-1.390795 -3.86332,-1.390795 -2.08619,0 -3.97922,1.236262 -1.85439,1.236263 -2.89749,3.322456 -1.15899,2.665691 -1.15899,9.426501 z m 98.47601,2.704324 q 0,5.138216 -2.66569,9.233335 -2.62705,4.095119 -7.72664,6.413111 -5.09958,2.317992 -12.09219,2.317992 -8.3834,0 -13.83068,-3.167922 -3.86332,-2.279359 -6.29722,-6.065413 -2.39525,-3.824687 -2.39525,-7.417574 0,-2.086193 1.42942,-3.554255 1.46807,-1.506695 3.70879,-1.506695 1.81576,0 3.05202,1.158996 1.2749,1.158996 2.16346,3.438355 1.08173,2.704324 2.318,4.520085 1.27489,1.81576 3.55425,3.013389 2.27936,1.158997 5.98815,1.158997 5.09958,0 8.2675,-2.356626 3.20656,-2.395258 3.20656,-5.949513 0,-2.820223 -1.7385,-4.558717 -1.69986,-1.777128 -4.44282,-2.704325 -2.70432,-0.927196 -7.26304,-1.970293 -6.10404,-1.429428 -10.2378,-3.322455 -4.09512,-1.93166 -6.52901,-5.215482 -2.39526,-3.322456 -2.39526,-8.228872 0,-4.674618 2.5498,-8.306138 2.54979,-3.6315214 7.37894,-5.5631815 4.82915,-1.9702932 11.35816,-1.9702932 5.21548,0 9.00153,1.3135288 3.82469,1.2748957 6.33585,3.4383549 2.51116,2.1248261 3.67015,4.481451 1.159,2.356626 1.159,4.597351 0,2.04756 -1.46806,3.708788 -1.42943,1.622594 -3.59289,1.622594 -1.97029,0 -3.01339,-0.96583 -1.00446,-1.004463 -2.20209,-3.245189 -1.54533,-3.206556 -3.70879,-4.983683 -2.16346,-1.81576 -6.95398,-1.81576 -4.44281,0 -7.18577,1.970293 -2.70432,1.93166 -2.70432,4.674617 0,1.699861 0.92719,2.936124 0.9272,1.236262 2.54979,2.124826 1.6226,0.888563 3.28383,1.390795 1.66122,0.502232 5.48591,1.468062 4.79052,1.120362 8.65384,2.472525 3.90195,1.352162 6.60627,3.283822 2.74296,1.93166 4.24966,4.906416 1.54532,2.936123 1.54532,7.224409 z m 48.48467,-3.476988 q 0,4.71325 -1.46806,8.69247 -1.46806,3.97922 -4.24966,6.838077 -2.78159,2.858857 -6.64491,4.404185 -3.86332,1.506694 -8.69247,1.506694 -4.79051,0 -8.6152,-1.545328 -3.82469,-1.545328 -6.64491,-4.404185 -2.78159,-2.89749 -4.24965,-6.799443 -1.42943,-3.940587 -1.42943,-8.69247 0,-4.790517 1.46806,-8.769737 1.46806,-3.97922 4.21102,-6.799443 2.74296,-2.820224 6.64491,-4.326919 3.90195,-1.545328 8.6152,-1.545328 4.79052,0 8.69247,1.545328 3.90196,1.545328 6.68355,4.404185 2.78159,2.858857 4.21102,6.799443 1.46806,3.940587 1.46806,8.692471 z m -10.5855,0 q 0,-6.451745 -2.85886,-10.044633 -2.82022,-3.592887 -7.61074,-3.592887 -3.09065,0 -5.44728,1.622594 -2.35662,1.583961 -3.63152,4.713251 -1.27489,3.129289 -1.27489,7.301675 0,4.133752 1.23626,7.224408 1.27489,3.090656 3.59289,4.751884 2.35662,1.622595 5.52454,1.622595 4.79052,0 7.61074,-3.592888 2.85886,-3.631521 2.85886,-10.005999 z m 29.43851,-15.453281 v 30.481596 q 0,3.167922 -1.5067,4.790517 -1.50669,1.622594 -3.82468,1.622594 -2.318,0 -3.78606,-1.661227 -1.42943,-1.661228 -1.42943,-4.751884 v -30.17253 q 0,-3.12929 1.42943,-4.713251 1.46806,-1.583961 3.78606,-1.583961 2.31799,0 3.82468,1.583961 1.5067,1.583961 1.5067,4.404185 z m -5.21549,-10.894563 q -2.20209,0 -3.78605,-1.352162 -1.54533,-1.352162 -1.54533,-3.8246865 0,-2.2407257 1.58396,-3.6701542 1.6226,-1.4680616 3.74742,-1.4680616 2.04756,0 3.63153,1.3135288 1.58396,1.3135289 1.58396,3.824687 0,2.4338915 -1.54533,3.8246865 -1.54533,1.352162 -3.67016,1.352162 z m 16.11006,41.376159 V 9.2622317 q 0,-3.1679225 1.39079,-4.790517 1.42943,-1.6225944 3.82469,-1.6225944 2.39526,0 3.86332,1.6225944 1.46806,1.5839613 1.46806,4.790517 V 55.003942 q 0,3.206556 -1.50669,4.82915 -1.46806,1.583961 -3.82469,1.583961 -2.31799,0 -3.78605,-1.661227 -1.42943,-1.661228 -1.42943,-4.751884 z m 78.73446,-41.723857 h -12.51716 v 41.144359 q 0,3.554254 -1.58396,5.292749 -1.58396,1.69986 -4.09512,1.69986 -2.54979,0 -4.17239,-1.738494 -1.58396,-1.738494 -1.58396,-5.254115 V 13.280085 H 387.6831 q -2.93612,0 -4.36555,-1.274896 -1.42943,-1.313529 -1.42943,-3.4383549 0,-2.2020925 1.46807,-3.4769881 1.50669,-1.2748957 4.32691,-1.2748957 h 36.46975 q 2.97475,0 4.40418,1.3135289 1.46806,1.3135288 1.46806,3.4383549 0,2.1248259 -1.46806,3.4383549 -1.46806,1.274896 -4.40418,1.274896 z m 46.43709,26.695542 q 0,4.71325 -1.46806,8.69247 -1.46807,3.97922 -4.24966,6.838077 -2.78159,2.858857 -6.64491,4.404185 -3.86332,1.506694 -8.69247,1.506694 -4.79051,0 -8.6152,-1.545328 -3.82469,-1.545328 -6.64491,-4.404185 -2.78159,-2.89749 -4.24965,-6.799443 -1.42943,-3.940587 -1.42943,-8.69247 0,-4.790517 1.46806,-8.769737 1.46806,-3.97922 4.21102,-6.799443 2.74296,-2.820224 6.64491,-4.326919 3.90195,-1.545328 8.6152,-1.545328 4.79052,0 8.69247,1.545328 3.90196,1.545328 6.68355,4.404185 2.78159,2.858857 4.21102,6.799443 1.46806,3.940587 1.46806,8.692471 z m -10.5855,0 q 0,-6.451745 -2.85886,-10.044633 -2.82022,-3.592887 -7.61074,-3.592887 -3.09065,0 -5.44728,1.622594 -2.35662,1.583961 -3.63152,4.713251 -1.2749,3.129289 -1.2749,7.301675 0,4.133752 1.23627,7.224408 1.27489,3.090656 3.59288,4.751884 2.35663,1.622595 5.52455,1.622595 4.79052,0 7.61074,-3.592888 2.85886,-3.631521 2.85886,-10.005999 z m 82.44327,3.476988 q 0,5.138216 -2.66569,9.233335 -2.62706,4.095119 -7.72664,6.413111 -5.09958,2.317992 -12.09219,2.317992 -8.38341,0 -13.83069,-3.167922 -3.86332,-2.279359 -6.29721,-6.065413 -2.39526,-3.824687 -2.39526,-7.417574 0,-2.086193 1.42943,-3.554255 1.46806,-1.506695 3.70879,-1.506695 1.81576,0 3.05202,1.158996 1.2749,1.158996 2.16346,3.438355 1.08173,2.704324 2.31799,4.520085 1.2749,1.81576 3.55426,3.013389 2.27935,1.158997 5.98814,1.158997 5.09958,0 8.26751,-2.356626 3.20655,-2.395258 3.20655,-5.949513 0,-2.820223 -1.73849,-4.558717 -1.69986,-1.777128 -4.44282,-2.704325 -2.70432,-0.927196 -7.26304,-1.970293 -6.10405,-1.429428 -10.2378,-3.322455 -4.09512,-1.93166 -6.52901,-5.215482 -2.39526,-3.322456 -2.39526,-8.228872 0,-4.674618 2.54979,-8.306138 2.54979,-3.6315214 7.37894,-5.5631815 4.82915,-1.9702932 11.35816,-1.9702932 5.21549,0 9.00154,1.3135288 3.82469,1.2748957 6.33585,3.4383549 2.51115,2.1248261 3.67015,4.481451 1.159,2.356626 1.159,4.597351 0,2.04756 -1.46807,3.708788 -1.42942,1.622594 -3.59288,1.622594 -1.9703,0 -3.01339,-0.96583 -1.00447,-1.004463 -2.2021,-3.245189 -1.54532,-3.206556 -3.70878,-4.983683 -2.16346,-1.81576 -6.95398,-1.81576 -4.44282,0 -7.18577,1.970293 -2.70433,1.93166 -2.70433,4.674617 0,1.699861 0.9272,2.936124 0.92719,1.236262 2.54979,2.124826 1.62259,0.888563 3.28382,1.390795 1.66123,0.502232 5.48592,1.468062 4.79051,1.120362 8.65383,2.472525 3.90196,1.352162 6.60628,3.283822 2.74296,1.93166 4.24965,4.906416 1.54533,2.936123 1.54533,7.224409 z m 48.48466,-3.476988 q 0,4.71325 -1.46806,8.69247 -1.46806,3.97922 -4.24965,6.838077 -2.78159,2.858857 -6.64491,4.404185 -3.86332,1.506694 -8.69247,1.506694 -4.79052,0 -8.6152,-1.545328 -3.82469,-1.545328 -6.64491,-4.404185 -2.78159,-2.89749 -4.24966,-6.799443 -1.42943,-3.940587 -1.42943,-8.69247 0,-4.790517 1.46807,-8.769737 1.46806,-3.97922 4.21102,-6.799443 2.74295,-2.820224 6.64491,-4.326919 3.90195,-1.545328 8.6152,-1.545328 4.79052,0 8.69247,1.545328 3.90195,1.545328 6.68354,4.404185 2.78159,2.858857 4.21102,6.799443 1.46806,3.940587 1.46806,8.692471 z m -10.58549,0 q 0,-6.451745 -2.85886,-10.044633 -2.82022,-3.592887 -7.61074,-3.592887 -3.09066,0 -5.44728,1.622594 -2.35663,1.583961 -3.63152,4.713251 -1.2749,3.129289 -1.2749,7.301675 0,4.133752 1.23626,7.224408 1.2749,3.090656 3.59289,4.751884 2.35663,1.622595 5.52455,1.622595 4.79052,0 7.61074,-3.592888 2.85886,-3.631521 2.85886,-10.005999 z m 18.89161,15.028315 V 9.2622317 q 0,-3.1679225 1.39079,-4.790517 1.42943,-1.6225944 3.82469,-1.6225944 2.39526,0 3.86332,1.6225944 1.46806,1.5839613 1.46806,4.790517 V 55.003942 q 0,3.206556 -1.50669,4.82915 -1.46806,1.583961 -3.82469,1.583961 -2.31799,0 -3.78605,-1.661227 -1.42943,-1.661228 -1.42943,-4.751884 z m 48.83241,0.463598 v -1.352162 q -1.89303,2.395259 -3.97922,4.017853 -2.0862,1.622595 -4.55872,2.395259 -2.47253,0.811297 -5.64045,0.811297 -3.82469,0 -6.87671,-1.583961 -3.01339,-1.583962 -4.67462,-4.365552 -1.97029,-3.361089 -1.97029,-9.6583 V 24.831412 q 0,-3.167923 1.42943,-4.713251 1.42943,-1.583961 3.78605,-1.583961 2.39526,0 3.86332,1.583961 1.46806,1.583961 1.46806,4.713251 v 16.882709 q 0,3.670154 0.61814,6.181312 0.61813,2.472525 2.20209,3.901953 1.62259,1.390796 4.36555,1.390796 2.66569,0 5.02232,-1.583962 2.35662,-1.583961 3.43835,-4.133752 0.88856,-2.240726 0.88856,-9.812833 V 24.831412 q 0,-3.12929 1.46807,-4.713251 1.46806,-1.583961 3.82468,-1.583961 2.35663,0 3.78606,1.583961 1.42943,1.545328 1.42943,4.713251 v 30.558862 q 0,3.01339 -1.3908,4.520085 -1.35216,1.506694 -3.51562,1.506694 -2.16346,0 -3.59289,-1.545328 -1.39079,-1.583961 -1.39079,-4.404185 z m 20.9778,-36.006143 h 1.159 v -6.335845 q 0,-2.549791 0.1159,-3.9792199 0.15453,-1.4680617 0.77266,-2.5111581 0.61813,-1.0817296 1.77713,-1.7384941 1.15899,-0.6953976 2.58842,-0.6953976 2.00893,0 3.63152,1.5066949 1.08173,1.0044632 1.35216,2.4725249 0.30907,1.4294284 0.30907,4.0951189 v 7.185776 h 3.86332 q 2.24073,0 3.39972,1.081729 1.19763,1.043097 1.19763,2.704325 0,2.124826 -1.69986,2.974756 -1.66123,0.84993 -4.79052,0.84993 h -1.97029 v 19.393868 q 0,2.472524 0.15453,3.824686 0.19317,1.313529 0.9272,2.16346 0.77266,0.811297 2.47252,0.811297 0.9272,0 2.51116,-0.309066 1.58396,-0.347698 2.47253,-0.347698 1.27489,0 2.27936,1.043096 1.04309,1.004463 1.04309,2.511158 0,2.549791 -2.78159,3.901953 -2.78159,1.352162 -7.99707,1.352162 -4.94505,0 -7.49484,-1.661227 -2.54979,-1.661228 -3.36109,-4.597351 -0.77266,-2.936123 -0.77266,-7.84254 V 27.072137 h -1.3908 q -2.27936,0 -3.47699,-1.081729 -1.19763,-1.08173 -1.19763,-2.742957 0,-1.661228 1.23627,-2.704325 1.27489,-1.081729 3.67015,-1.081729 z m 37.97646,5.060949 v 30.481596 q 0,3.167922 -1.5067,4.790517 -1.50669,1.622594 -3.82468,1.622594 -2.31799,0 -3.78606,-1.661227 -1.42942,-1.661228 -1.42942,-4.751884 v -30.17253 q 0,-3.12929 1.42942,-4.713251 1.46807,-1.583961 3.78606,-1.583961 2.31799,0 3.82468,1.583961 1.5067,1.583961 1.5067,4.404185 z m -5.21548,-10.894563 q -2.20209,0 -3.78606,-1.352162 -1.54532,-1.352162 -1.54532,-3.8246865 0,-2.2407257 1.58396,-3.6701542 1.62259,-1.4680616 3.74742,-1.4680616 2.04756,0 3.63152,1.3135288 1.58396,1.3135289 1.58396,3.824687 0,2.4338915 -1.54533,3.8246865 -1.54533,1.352162 -3.67015,1.352162 z m 55.59315,26.347844 q 0,4.71325 -1.46806,8.69247 -1.46806,3.97922 -4.24965,6.838077 -2.78159,2.858857 -6.64491,4.404185 -3.86332,1.506694 -8.69247,1.506694 -4.79052,0 -8.6152,-1.545328 -3.82469,-1.545328 -6.64492,-4.404185 -2.78159,-2.89749 -4.24965,-6.799443 -1.42943,-3.940587 -1.42943,-8.69247 0,-4.790517 1.46807,-8.769737 1.46806,-3.97922 4.21101,-6.799443 2.74296,-2.820224 6.64492,-4.326919 3.90195,-1.545328 8.6152,-1.545328 4.79052,0 8.69247,1.545328 3.90195,1.545328 6.68354,4.404185 2.78159,2.858857 4.21102,6.799443 1.46806,3.940587 1.46806,8.692471 z m -10.58549,0 q 0,-6.451745 -2.85886,-10.044633 -2.82022,-3.592887 -7.61074,-3.592887 -3.09066,0 -5.44728,1.622594 -2.35663,1.583961 -3.63152,4.713251 -1.2749,3.129289 -1.2749,7.301675 0,4.133752 1.23626,7.224408 1.2749,3.090656 3.59289,4.751884 2.35663,1.622595 5.52455,1.622595 4.79052,0 7.61074,-3.592888 2.85886,-3.631521 2.85886,-10.005999 z m 28.4727,-15.607814 v 1.274896 q 2.78159,-3.670154 6.06542,-5.370015 3.32245,-1.738494 7.61074,-1.738494 4.17238,0 7.4562,1.81576 3.28383,1.815761 4.90642,5.138216 1.0431,1.93166 1.35216,4.172386 0.30907,2.240726 0.30907,5.717714 v 19.625666 q 0,3.167922 -1.46806,4.790517 -1.42943,1.622594 -3.74742,1.622594 -2.35663,0 -3.82469,-1.661227 -1.46806,-1.661228 -1.46806,-4.751884 V 37.425835 q 0,-5.215482 -1.46806,-7.958439 -1.42943,-2.781591 -5.75635,-2.781591 -2.82023,0 -5.13822,1.699861 -2.31799,1.661228 -3.39972,4.597351 -0.77266,2.356626 -0.77266,8.80837 v 13.212555 q 0,3.206556 -1.5067,4.82915 -1.46806,1.583961 -3.82468,1.583961 -2.27936,0 -3.74743,-1.661227 -1.46806,-1.661228 -1.46806,-4.751884 V 24.522346 q 0,-3.01339 1.31353,-4.481451 1.31353,-1.506695 3.59289,-1.506695 1.39079,0 2.51116,0.656764 1.12036,0.656765 1.77712,1.970294 0.6954,1.313529 0.6954,3.206555 z m 72.1668,23.257188 q 0,4.365551 -2.12483,7.494841 -2.12482,3.090656 -6.29721,4.71325 -4.13375,1.583961 -10.08327,1.583961 -5.67908,0 -9.73556,-1.738494 -4.05649,-1.738494 -5.98815,-4.326918 -1.93166,-2.627058 -1.93166,-5.254116 0,-1.738494 1.23626,-2.974756 1.23627,-1.236263 3.12929,-1.236263 1.66123,0 2.54979,0.811298 0.88857,0.811297 1.69987,2.279359 1.62259,2.820223 3.86332,4.211019 2.27935,1.390795 6.18131,1.390795 3.16792,0 5.17685,-1.390795 2.04756,-1.429429 2.04756,-3.245189 0,-2.781591 -2.12483,-4.056487 -2.08619,-1.274895 -6.91534,-2.433891 -5.44728,-1.352162 -8.88564,-2.820224 -3.39972,-1.506695 -5.44728,-3.940586 -2.04756,-2.433892 -2.04756,-5.988147 0,-3.167922 1.89303,-5.988146 1.89302,-2.820223 5.56318,-4.481451 3.70879,-1.699861 8.92427,-1.699861 4.09512,0 7.34031,0.84993 3.28382,0.849931 5.44728,2.279359 2.20209,1.429429 3.32245,3.167923 1.159,1.738494 1.159,3.399722 0,1.81576 -1.23626,2.974756 -1.19763,1.158996 -3.43836,1.158996 -1.62259,0 -2.78159,-0.927197 -1.12036,-0.927197 -2.58842,-2.78159 -1.19763,-1.545328 -2.82023,-2.472525 -1.62259,-0.927197 -4.40418,-0.927197 -2.85886,0 -4.75189,1.236262 -1.89302,1.19763 -1.89302,3.01339 0,1.661228 1.39079,2.742957 1.3908,1.043097 3.74742,1.738495 2.35663,0.695397 6.49038,1.69986 4.90642,1.19763 7.99707,2.858857 3.12929,1.661228 4.71325,3.940587 1.6226,2.240725 1.6226,5.138216 z"
     id="text2"
     style="font-size:79.1208px;font-family:'Arial Rounded MT Bold';-inkscape-font-specification:'Arial Rounded MT Bold, Normal';dominant-baseline:middle;text-anchor:middle;fill:url(#gradient);stroke-width:0.999997"
     transform="matrix(0.90974352,-0.00103609,0,1.0992109,0,0)"
     aria-label="From Soil To Solutions" />
</svg>
